<!DOCTYPE svg PUBLIC "-//W3C//DTD SVG 1.1//EN" "http://www.w3.org/Graphics/SVG/1.1/DTD/svg11.dtd">

<!-- Uploaded to: SVG Repo, www.svgrepo.com, Transformed by: SVG Repo Mixer Tools -->
<svg height="80px" width="80px" version="1.1" id="Layer_1" xmlns="http://www.w3.org/2000/svg" xmlns:xlink="http://www.w3.org/1999/xlink" viewBox="0 0 503.512 503.512" xml:space="preserve" fill="#000000">

<g id="SVGRepo_bgCarrier" stroke-width="0"/>

<g id="SVGRepo_tracerCarrier" stroke-linecap="round" stroke-linejoin="round"/>

<g id="SVGRepo_iconCarrier"> <path style="fill:#FFDB2D;" d="M485.09,503.512H18.421C8.248,503.512,0,495.264,0,485.09V18.421C0,8.248,8.248,0,18.421,0H485.09 c10.173,0,18.421,8.248,18.421,18.421V485.09C503.512,495.264,495.265,503.512,485.09,503.512z"/> <path style="fill:#FF9900;" d="M485.09,0H251.756v503.512H485.09c10.173,0,18.421-8.248,18.421-18.421V18.421 C503.512,8.248,495.265,0,485.09,0z"/> <path style="fill:#3E8778;" d="M426.757,221.054c-42.323,0-76.755-34.433-76.755-76.755V18.421C350.002,8.248,358.25,0,368.423,0 H485.09c10.173,0,18.421,8.248,18.421,18.421v125.878C503.512,186.622,469.08,221.054,426.757,221.054z"/> <path style="fill:#48A792;" d="M368.423,0H251.756v194.101c14.089,16.478,35.005,26.953,58.334,26.953 c42.323,0,76.755-34.433,76.755-76.755V18.421C386.844,8.248,378.598,0,368.423,0z"/> <path style="fill:#FF9900;" d="M203.969,386.844v-98.246c0-10.173-8.248-18.421-18.421-18.421H76.141 c-10.173,0-18.421,8.248-18.421,18.421v98.246c0,10.173,8.248,18.421,18.421,18.421h109.407 C195.721,405.265,203.969,397.018,203.969,386.844z"/> <path style="fill:#48A792;" d="M193.422,221.054c-42.323,0-76.755-34.433-76.755-76.755V18.421C116.667,8.248,124.915,0,135.088,0 h116.667c10.173,0,18.421,8.248,18.421,18.421v125.878C270.177,186.622,235.745,221.054,193.422,221.054z"/> <path style="fill:#85EDC1;" d="M76.755,221.054C34.432,221.054,0,186.621,0,144.299V18.421C0,8.248,8.248,0,18.421,0h116.667 c10.173,0,18.421,8.248,18.421,18.421v125.878C153.51,186.622,119.078,221.054,76.755,221.054z"/> <path style="fill:#3E8778;" d="M270.177,18.421C270.177,8.248,261.929,0,251.756,0v194.101 c11.471-13.417,18.421-30.808,18.421-49.802V18.421z"/> <path style="fill:#816142;" d="M445.792,503.512h-153.51V288.598c0-10.173,8.248-18.421,18.421-18.421h116.667 c10.173,0,18.421,8.248,18.421,18.421V503.512z"/> </g>

</svg>